<?xml version="1.0" encoding="UTF-8" standalone="no"?>
<svg width="40px" height="40px" viewBox="0 0 40 40" version="1.1" xmlns="http://www.w3.org/2000/svg" xmlns:xlink="http://www.w3.org/1999/xlink">
    <!-- Generator: Sketch 39.1 (31720) - http://www.bohemiancoding.com/sketch -->
    <title>google-plus-logo-button</title>
    <desc>Created with Sketch.</desc>
    <defs></defs>
    <g id="Page-1" stroke="none" stroke-width="1" fill="none" fill-rule="evenodd">
        <g id="Desktop-HD" transform="translate(-1102.000000, -5272.000000)" fill="#4A4A4A">
            <g id="google-plus-logo-button" transform="translate(1102.000000, 5272.000000)">
                <path d="M17.199,23.431 C17.07,23.345 16.938,23.255 16.801,23.157 C16.398,23.036 15.973,22.97 15.535,22.966 L15.48,22.966 C13.469,22.966 11.707,24.181 11.707,25.571 C11.707,27.083 13.219,28.267 15.145,28.267 C17.688,28.267 18.977,27.388 18.977,25.661 C18.977,25.497 18.957,25.325 18.918,25.157 C18.746,24.485 18.129,24.067 17.199,23.431 L17.199,23.431 Z" id="Fill-1"></path>
                <g id="Group-5">
                    <path d="M15.773,18.161 L15.777,18.161 C16.258,18.161 16.664,17.97 16.977,17.61 C17.469,17.048 17.688,16.126 17.559,15.149 C17.332,13.399 16.082,11.942 14.777,11.907 L14.723,11.903 C14.262,11.903 13.852,12.095 13.539,12.454 C13.051,13.009 12.848,13.888 12.973,14.864 C13.203,16.61 14.48,18.118 15.758,18.161 L15.773,18.161 Z" id="Fill-2"></path>
                    <path d="M19.859,0.278 C8.91,0.278 0,9.189 0,20.138 C0,31.091 8.91,40.001 19.859,40.001 C30.812,40.001 39.723,31.091 39.723,20.138 C39.723,9.189 30.812,0.278 19.859,0.278 L19.859,0.278 Z M17.57,29.81 C16.82,30.028 16.008,30.138 15.156,30.138 C14.207,30.138 13.297,30.028 12.445,29.814 C10.801,29.399 9.586,28.61 9.016,27.595 C8.77,27.157 8.648,26.692 8.648,26.204 C8.648,25.708 8.766,25.2 9,24.7 C9.902,22.778 12.281,21.485 14.914,21.485 L14.988,21.485 C14.773,21.11 14.672,20.72 14.672,20.31 C14.672,20.107 14.699,19.899 14.754,19.685 C11.992,19.622 9.926,17.603 9.926,14.935 C9.926,13.052 11.43,11.22 13.582,10.478 C14.227,10.255 14.883,10.142 15.527,10.142 L21.434,10.142 C21.633,10.142 21.812,10.271 21.875,10.462 C21.938,10.653 21.867,10.864 21.707,10.982 L20.387,11.939 C20.305,11.993 20.211,12.024 20.113,12.024 L19.641,12.024 C20.25,12.755 20.609,13.802 20.609,14.974 C20.609,16.267 19.953,17.489 18.762,18.419 C17.844,19.138 17.805,19.337 17.805,19.743 C17.816,19.97 18.457,20.704 19.164,21.204 C20.812,22.368 21.426,23.509 21.426,25.419 C21.426,27.407 19.91,29.13 17.57,29.81 L17.57,29.81 Z M30.906,19.681 C30.906,19.939 30.699,20.146 30.445,20.146 L27.086,20.146 L27.086,23.501 C27.086,23.759 26.879,23.966 26.625,23.966 L25.668,23.966 C25.41,23.966 25.203,23.759 25.203,23.501 L25.203,20.146 L21.848,20.146 C21.594,20.146 21.383,19.939 21.383,19.681 L21.383,18.728 C21.383,18.47 21.594,18.259 21.848,18.259 L25.203,18.259 L25.203,14.907 C25.203,14.649 25.41,14.442 25.668,14.442 L26.625,14.442 C26.879,14.442 27.086,14.649 27.086,14.907 L27.086,18.259 L30.445,18.259 C30.699,18.259 30.906,18.47 30.906,18.724 L30.906,19.681 Z" id="Fill-4"></path>
                </g>
            </g>
        </g>
    </g>
</svg>