<?xml version="1.0" encoding="UTF-8" standalone="no"?>
<svg width="40px" height="40px" viewBox="0 0 40 40" version="1.1" xmlns="http://www.w3.org/2000/svg" xmlns:xlink="http://www.w3.org/1999/xlink">
    <!-- Generator: Sketch 39.1 (31720) - http://www.bohemiancoding.com/sketch -->
    <title>instagram-logo</title>
    <desc>Created with Sketch.</desc>
    <defs></defs>
    <g id="Page-1" stroke="none" stroke-width="1" fill="none" fill-rule="evenodd">
        <g id="Desktop-HD" transform="translate(-1166.000000, -5272.000000)" fill="#4A4A4A">
            <g id="instagram-logo" transform="translate(1166.000000, 5272.000000)">
                <path d="M19.859,24.114 C22.051,24.114 23.836,22.333 23.836,20.138 C23.836,19.274 23.555,18.474 23.086,17.821 C22.363,16.821 21.188,16.165 19.859,16.165 C18.535,16.165 17.359,16.817 16.637,17.821 C16.164,18.474 15.887,19.274 15.883,20.138 C15.883,22.333 17.668,24.114 19.859,24.114 L19.859,24.114 Z" id="Fill-1"></path>
                <g id="Group-5">
                    <polygon id="Fill-2" points="28.543 15.274 28.543 11.446 28.043 11.446 24.711 11.458 24.727 15.286"></polygon>
                    <path d="M19.859,0.278 C8.91,0.278 0,9.189 0,20.138 C0,31.091 8.91,40.001 19.859,40.001 C30.812,40.001 39.723,31.091 39.723,20.138 C39.723,9.189 30.812,0.278 19.859,0.278 L19.859,0.278 Z M31.156,17.821 L31.156,27.071 C31.156,29.478 29.199,31.435 26.789,31.435 L12.93,31.435 C10.523,31.435 8.566,29.478 8.566,27.071 L8.566,13.212 C8.566,10.802 10.523,8.845 12.93,8.845 L26.789,8.845 C29.199,8.845 31.156,10.802 31.156,13.212 L31.156,17.821 Z" id="Fill-4"></path>
                </g>
                <path d="M26.039,20.138 C26.039,23.544 23.27,26.317 19.859,26.317 C16.453,26.317 13.684,23.544 13.684,20.138 C13.684,19.321 13.848,18.536 14.137,17.821 L10.766,17.821 L10.766,27.071 C10.766,28.267 11.734,29.232 12.93,29.232 L26.789,29.232 C27.984,29.232 28.953,28.267 28.953,27.071 L28.953,17.821 L25.582,17.821 C25.871,18.536 26.039,19.321 26.039,20.138 L26.039,20.138 Z" id="Fill-6"></path>
            </g>
        </g>
    </g>
</svg>