<?xml version="1.0" encoding="UTF-8" standalone="no"?>
<svg width="40px" height="40px" viewBox="0 0 40 40" version="1.1" xmlns="http://www.w3.org/2000/svg" xmlns:xlink="http://www.w3.org/1999/xlink">
    <!-- Generator: Sketch 39.1 (31720) - http://www.bohemiancoding.com/sketch -->
    <title>linkedin-logo-button</title>
    <desc>Created with Sketch.</desc>
    <defs></defs>
    <g id="Page-1" stroke="none" stroke-width="1" fill="none" fill-rule="evenodd">
        <g id="Desktop-HD" transform="translate(-1230.000000, -5272.000000)" fill="#4A4A4A">
            <g id="linkedin-logo-button" transform="translate(1230.000000, 5272.000000)">
                <path d="M23.48,17.317 C21.781,17.317 21.02,18.251 20.594,18.907 L20.594,17.544 L17.395,17.544 C17.434,18.446 17.395,27.177 17.395,27.177 L20.594,27.177 L20.594,21.798 C20.594,21.509 20.613,21.22 20.699,21.017 C20.93,20.439 21.457,19.845 22.344,19.845 C23.5,19.845 23.965,20.728 23.965,22.021 L23.965,27.177 L27.168,27.177 L27.168,21.649 C27.168,18.692 25.586,17.317 23.48,17.317 L23.48,17.317 Z M20.594,18.942 L20.574,18.942 C20.578,18.931 20.59,18.919 20.594,18.907 L20.594,18.942 Z" id="Fill-1"></path>
                <g id="Group-5">
                    <polygon id="Fill-2" points="12.418 27.177 15.621 27.177 15.621 17.544 12.418 17.544"></polygon>
                    <path d="M19.859,0.278 C8.91,0.278 0,9.189 0,20.138 C0,31.091 8.91,40.001 19.859,40.001 C30.812,40.001 39.723,31.091 39.723,20.138 C39.723,9.189 30.812,0.278 19.859,0.278 L19.859,0.278 Z M30.395,29.122 C30.395,29.966 29.691,30.649 28.824,30.649 L10.762,30.649 C9.898,30.649 9.195,29.966 9.195,29.122 L9.195,10.849 C9.195,10.005 9.898,9.317 10.762,9.317 L28.824,9.317 C29.691,9.317 30.395,10.005 30.395,10.849 L30.395,29.122 Z" id="Fill-4"></path>
                </g>
                <path d="M14.039,12.899 C12.945,12.899 12.23,13.618 12.23,14.564 C12.23,15.489 12.926,16.228 14,16.228 L14.02,16.228 C15.137,16.228 15.832,15.489 15.832,14.564 C15.809,13.618 15.137,12.899 14.039,12.899 L14.039,12.899 Z" id="Fill-6"></path>
            </g>
        </g>
    </g>
</svg>