<?xml version="1.0" encoding="UTF-8" standalone="no"?>
<svg width="40px" height="40px" viewBox="0 0 40 40" version="1.1" xmlns="http://www.w3.org/2000/svg" xmlns:xlink="http://www.w3.org/1999/xlink">
    <!-- Generator: Sketch 39.1 (31720) - http://www.bohemiancoding.com/sketch -->
    <title>twitter-logo-button</title>
    <desc>Created with Sketch.</desc>
    <defs></defs>
    <g id="Page-1" stroke="none" stroke-width="1" fill="none" fill-rule="evenodd">
        <g id="Desktop-HD" transform="translate(-1038.000000, -5272.000000)" fill="#4A4A4A">
            <g id="twitter-logo-button" transform="translate(1038.000000, 5272.000000)">
                <path d="M19.859,0.278 C8.91,0.278 0,9.189 0,20.138 C0,31.091 8.91,40.001 19.859,40.001 C30.812,40.001 39.723,31.091 39.723,20.138 C39.723,9.189 30.812,0.278 19.859,0.278 L19.859,0.278 Z M28.723,15.595 C28.73,15.79 28.734,15.989 28.734,16.189 C28.734,22.228 24.137,29.192 15.727,29.192 C13.145,29.192 10.742,28.439 8.719,27.138 C9.078,27.181 9.441,27.204 9.809,27.204 C11.953,27.204 13.922,26.474 15.488,25.247 C13.488,25.208 11.801,23.888 11.219,22.071 C11.496,22.126 11.781,22.153 12.078,22.153 C12.492,22.153 12.898,22.099 13.281,21.993 C11.191,21.575 9.613,19.728 9.613,17.513 C9.613,17.493 9.613,17.474 9.617,17.454 C10.23,17.798 10.938,18.001 11.688,18.024 C10.461,17.208 9.652,15.806 9.652,14.22 C9.652,13.384 9.879,12.599 10.27,11.923 C12.523,14.689 15.895,16.509 19.691,16.7 C19.613,16.364 19.574,16.017 19.574,15.657 C19.574,13.134 21.621,11.087 24.145,11.087 C25.461,11.087 26.648,11.642 27.48,12.528 C28.523,12.325 29.504,11.946 30.387,11.419 C30.043,12.489 29.32,13.384 28.375,13.95 C29.301,13.841 30.184,13.595 31,13.232 C30.391,14.146 29.613,14.95 28.723,15.595 L28.723,15.595 Z" id="Fill-1"></path>
            </g>
        </g>
    </g>
</svg>