<?xml version="1.0" encoding="utf-8"?>
<!-- Generator: Adobe Illustrator 20.0.0, SVG Export Plug-In . SVG Version: 6.00 Build 0)  -->
<svg version="1.1" id="Layer_1" xmlns="http://www.w3.org/2000/svg" xmlns:xlink="http://www.w3.org/1999/xlink" x="0px" y="0px"
	 viewBox="0 0 612 792" style="enable-background:new 0 0 612 792;" xml:space="preserve">
<style type="text/css">
	.st0{fill:#EFEED8;}
	.st1{fill:#F4F3E4;}
	.st2{fill:#F4F1D9;}
	.st3{fill:#F6F5C6;}
	.st4{fill:#F4EFD4;}
	.st5{fill:#F2EEC1;}
	.st6{fill:#F4F2D8;}
	.st7{fill:#F4F2CE;}
	.st8{fill:#ED1C24;}
	.st9{fill:#D61F38;}
	.st10{fill:#E63A4E;}
	.st11{fill:#EE323E;}
	.st12{fill:#D7D1D3;}
	.st13{fill:#3A3738;}
	.st14{fill:#0B090A;}
	.st15{fill:#EFEC8B;}
	.st16{fill:#F4D80F;}
	.st17{fill:#E5D01D;}
</style>
<g id="XMLID_2_">
	<g>
		<polygon points="431.8,180.3 497.6,324.6 466.6,324.6 431.8,234.2 396.9,324.6 366,324.6 		"/>
		<polygon points="295.9,180.3 361.7,324.6 330.7,324.6 295.9,234.2 261.1,324.6 230.1,324.6 		"/>
	</g>
	<g>
	</g>
</g>
<g>
	<g id="XMLID_4_">
		<g>
			<path class="st0" d="M375.8,290.4c0,0,0.4,9.6-2.3,14.7c0,0-1.6,2.1-2.7,1.7C372.5,302.3,374.9,295.3,375.8,290.4z"/>
			<path class="st1" d="M375.8,290.4c-0.9,5-3.3,12-5,16.4c-0.9,2.5-1.6,4.3-1.6,4.3s-0.4,2-2.3,0.7c0.1-0.3,0.2-0.7,0.2-1.2
				c0-1.1,0.5-2.3,1-3.1c0.3-0.5,0.5-0.9,0.6-0.9c0,0,0,0,0,0s0.6-2.2,1.4-5.3c1.3-4.9,3-12.1,3.3-16.5l2.7,0.9
				C376.4,286.6,376.2,288.3,375.8,290.4z"/>
			<path class="st2" d="M373.4,284.6c-0.3,4.5-2,11.7-3.3,16.5l-0.2,0c-2.4,0.6-8.6-0.1-17.2-1.7c1-1.1,2.1-2.5,3.4-3.9
				c6.8,1.6,10.9,2.6,10.9,2.6l1.2-3.5c0.6-0.6,1.1-1.2,1.6-2c0.7-1.2,1.1-2.6,1.4-4c0.5-2.7,0.5-5.6,0.3-7.7c0.5-0.2,1-0.3,1.3-0.2
				l0.3,0.3C373.5,281.7,373.5,283,373.4,284.6z"/>
			<path class="st3" d="M370,301.1l0.2,0c-0.8,3.1-1.4,5.3-1.4,5.3s0,0,0,0c-2.6,0.9-18.7-3.7-18.7-3.7s1.1-1.3,2.8-3.3
				C361.4,301,367.5,301.7,370,301.1z"/>
			<path class="st3" d="M367.9,307.3l0.2,0.1c-0.4,0.8-1,2-1,3.1c0,0.5-0.1,0.9-0.2,1.2c-0.4,1-1.2,1.5-1.2,1.5l-33.9-9.4
				l-47.5-12.4c0,0-0.5-0.1-1.6-0.4l0.4-1.6C308.8,295.6,338.1,302,367.9,307.3z"/>
			<path class="st4" d="M371.2,288.6c-0.3,1.4-0.7,2.8-1.4,4c-2.1,0.3-5.6,0-10.4-0.7c1-1.1,2-2.1,3-3.2
				C367.3,289.3,370.4,289.4,371.2,288.6z"/>
			<path class="st4" d="M369.8,292.6c-0.4,0.8-0.9,1.4-1.6,2l-1.2,3.5c0,0-4.1-1-10.9-2.6c1-1.2,2.1-2.4,3.3-3.6
				C364.2,292.6,367.8,292.9,369.8,292.6z"/>
			<path class="st5" d="M371.5,280.9c0.2,2.2,0.2,5-0.3,7.7c-0.9,0.7-3.9,0.7-8.7,0.1C366.1,285,369.5,281.8,371.5,280.9z"/>
			<path class="st5" d="M371.4,279.5c0.1,0.4,0.1,0.9,0.1,1.5c-2,0.9-5.5,4.1-9,7.8c-14.5-1.9-44.5-9.2-74.6-17.1
				c-0.1-2.3,0.3-4.7,0.3-4.7l2-8.1c10.5,2.5,23.7,5.5,39.8,8.8c9.3,1.9,41.1,9.8,41.1,9.8S371.3,278.2,371.4,279.5z"/>
			<path class="st3" d="M367.9,307.3c-29.8-5.2-59.1-11.7-84.8-18l0.8-3.7c1-0.4,2-1,2.6-1.6c0.2,0,0.4,0.1,0.5,0.1
				c-0.1,1.4-0.5,3.5-1.2,3.6c-0.9,0.1,1.1,0.3,3.1-1.8l0,0c0.3-0.3,0.5-0.7,0.8-1.1c24.1,6.1,47.5,11.8,63,14.6
				c-1.7,2-2.8,3.3-2.8,3.3s16.2,4.6,18.7,3.7c0,0-0.3,0.4-0.6,0.9L367.9,307.3z"/>
			<path class="st6" d="M362.5,288.7c-1,1-2,2.1-3,3.2c-15.2-2.2-42.3-8.8-69.8-16c0,0,0,0,0,0c-1.3-0.4-1.7-2.3-1.8-4.3
				C318,279.5,348,286.8,362.5,288.7z"/>
			<path class="st6" d="M359.5,291.9c-1.1,1.2-2.3,2.5-3.3,3.6c-14.4-3.4-40.7-9.8-65.4-15.7c0.3-1.8,0.2-3.5-1.1-3.8
				C317.2,283.1,344.3,289.7,359.5,291.9z"/>
			<path class="st7" d="M289.7,284.9c-0.1,0-0.2-0.1-0.3-0.1c0.2-0.6,1-2.9,1.4-5c24.8,6,51.1,12.3,65.4,15.7
				c-1.3,1.4-2.5,2.8-3.4,3.9C337.3,296.6,313.8,291,289.7,284.9z"/>
			<path class="st8" d="M313.8,245.2c0,0-1.9,12.5-20.4,10.7c0.9-1.4,0.4-3.1-4.7-4.7l0-0.1c0,0,13.9-14.2,19-11
				C312.9,243.4,313.8,245.2,313.8,245.2z"/>
			<path class="st9" d="M290.8,279.8c-0.3,2.1-1.2,4.4-1.4,5c-0.8-0.2-1.6-0.4-2.4-0.6c0.1-1,0-1.6-0.1-0.9c0,0.3-0.2,0.5-0.5,0.7
				c-0.7-0.2-1.5-0.4-2.2-0.6l1.1-5C287.2,278.9,289,279.4,290.8,279.8z"/>
			<path class="st9" d="M289.4,284.8c0,0.1,0,0.1,0,0.1l-0.4,1l0,0c-1.9,2.2-3.9,2-3.1,1.8c0.7-0.1,1.1-2.2,1.2-3.6
				C287.8,284.4,288.6,284.6,289.4,284.8z"/>
			<path class="st9" d="M289.7,275.9c1.2,0.3,1.3,2,1.1,3.8c-1.8-0.4-3.6-0.9-5.4-1.3l0.8-3.5C287.3,275.3,288.5,275.6,289.7,275.9
				C289.7,275.9,289.7,275.9,289.7,275.9z"/>
			<path class="st9" d="M288.8,251.3c5.1,1.5,5.6,3.3,4.7,4.7c-0.2,0.3-0.5,0.6-0.7,0.8l-1.6,0.5c-0.9-0.3-1.6-0.6-2.2-1l0,0
				c-3-1.9-3.5-5-4.8-6.1c0.6,0.1,1.2,0.2,2,0.4C287.1,250.8,288,251,288.8,251.3z"/>
			<path class="st9" d="M291.1,257.3l1.6-0.5c-1.2,1.1-3.1,1.9-3.1,1.9l-0.7-2.3C289.5,256.7,290.3,257,291.1,257.3z"/>
			<path class="st9" d="M287.9,271.6c0.1,2,0.5,4,1.8,4.3c-1.2-0.3-2.4-0.6-3.6-0.9l0.8-3.6C287.3,271.4,287.6,271.5,287.9,271.6z"
				/>
			<path class="st9" d="M284.3,283.5c0.7,0.2,1.5,0.4,2.2,0.6c-0.6,0.6-1.7,1.1-2.6,1.6L284.3,283.5z"/>
			<path class="st8" d="M283.1,289.3l-0.4,1.6c-1.6-0.4-4.5-1.1-8.3-2l-0.1,0l-0.2,0l0.4-1.6C277.3,287.9,280.2,288.6,283.1,289.3z"
				/>
			<path class="st8" d="M281.8,286.3c0.1,0,1-0.3,2-0.7l-0.8,3.7c-2.9-0.7-5.7-1.4-8.5-2.1l1.4-5.9c2.5,0.6,4.9,1.3,7.4,1.9
				C282.9,284.9,282.2,286.2,281.8,286.3C281.9,286.3,281.8,286.3,281.8,286.3z"/>
			<path class="st9" d="M284.3,283.5l-0.5,2.1c-1,0.4-1.9,0.7-2,0.7c0,0,0,0,0.1,0c0.3-0.1,1-1.4,1.5-3.1
				C283.7,283.3,284,283.4,284.3,283.5z"/>
			<path class="st9" d="M283.4,283.2c0.5-1.6,0.8-3.5,0.7-5.1c0.4,0.1,0.9,0.2,1.3,0.3l-1.1,5C284,283.4,283.7,283.3,283.4,283.2z"
				/>
			<path class="st10" d="M286.9,271.4l2.7-12.6c0.2,0,0.4,0.1,0.6,0.1l-2,8.1c0,0-0.4,2.4-0.3,4.7
				C287.6,271.5,287.3,271.4,286.9,271.4z"/>
			<path class="st9" d="M286.1,275l-0.8,3.5c-0.4-0.1-0.9-0.2-1.3-0.3c-0.1-1-0.3-1.8-0.8-2.4c-0.3-0.4-0.4-0.9-0.5-1.6
				C283.9,274.4,285,274.7,286.1,275z"/>
			<path class="st9" d="M286.9,271.4l-0.8,3.6c-1.1-0.3-2.2-0.6-3.4-0.9c-0.1-1-0.1-2.4,0.1-3.8C284.2,270.6,285.6,271,286.9,271.4z
				"/>
			<path class="st9" d="M289.7,258.7l-2.7,12.6c-1.4-0.4-2.7-0.7-4.1-1.1c0.5-5.4,2.5-12.6,2.5-12.6c0.3,0.1,0.5,0.1,0.8,0.2
				C287.3,258.1,288.4,258.4,289.7,258.7z"/>
			<path class="st8" d="M289.7,258.6L289.7,258.6c-1.2-0.2-2.4-0.5-3.5-0.8l0-0.1c0,0-7-6.7-3.7-7.9l0,0c0.5,0.1,1.1,0.1,1.7,0.2
				c1.2,1.1,1.7,4.3,4.8,6.1l0,0L289.7,258.6z"/>
			<path class="st8" d="M284.1,278.2c0.1,1.6-0.2,3.5-0.7,5.1c-2.5-0.6-4.9-1.3-7.4-1.9l1.2-4.8C279.4,277,281.7,277.6,284.1,278.2z
				"/>
			<path class="st8" d="M283.3,275.7c0.5,0.6,0.7,1.5,0.8,2.4c-2.3-0.6-4.6-1.1-6.9-1.7l0.9-3.6c1.6,0.4,3.2,0.8,4.7,1.3
				C282.9,274.8,283,275.4,283.3,275.7z"/>
			<path class="st8" d="M282.8,270.3c-0.2,1.5-0.2,2.8-0.1,3.8c-1.6-0.4-3.2-0.8-4.7-1.3l0.9-3.5c0,0,0.1-0.1,0.1-0.1
				C280.3,269.6,281.6,269.9,282.8,270.3z"/>
			<path class="st8" d="M279,269.3c3-3.2,6.6-9.2,5.8-11.7c0.2,0,0.4,0.1,0.6,0.1c0,0-2,7.2-2.5,12.6
				C281.6,269.9,280.3,269.6,279,269.3z"/>
			<path class="st9" d="M284.8,257.5c0.8,2.5-2.8,8.5-5.8,11.7c0,0,0,0-0.1,0l3-12.4C282.9,257.1,283.8,257.3,284.8,257.5z"/>
			<path class="st3" d="M195.5,266.8c0.1-0.4,0.2-0.9,0.3-1.5c3.9,1.2,35.5,11,78.8,21.8l-0.4,1.6l0.2,0
				c-10.5-2.5-28.5-6.5-49.2-9.9c-33.1-5.5-30.1-9.3-30.1-9.3s0.1-0.4,0.2-1C195.3,268.1,195.4,267.5,195.5,266.8z"/>
			<path class="st3" d="M276,281.3l-1.4,5.9c-43.3-10.8-74.9-20.6-78.8-21.8c0.3-1.6,0.7-3.5,1.1-5.5c2.2,0.6,28.3,8,59.7,16.4
				l-0.5,1.2l1.7-0.9C263.7,278.1,269.8,279.7,276,281.3z"/>
			<path class="st6" d="M277.2,276.5l-1.2,4.8c-6.2-1.6-12.3-3.2-18.3-4.8l3.5-1.9c0,0,2,0,3.4-1.2
				C268.6,274.4,272.8,275.4,277.2,276.5z"/>
			<path class="st6" d="M278,272.9l-0.9,3.6c-4.4-1.1-8.6-2.1-12.6-3.1c0.2-0.2,0.5-0.5,0.7-0.8c0.6-0.9,2.5-1.7,4.6-2
				C272.6,271.4,275.3,272.1,278,272.9z"/>
			<path class="st9" d="M278.9,269.2l0,0.1c-1.4,1.5-2.7,2.3-3.4,1.8c-1-0.8-3.4-0.9-5.7-0.5c-2.7-0.7-5.4-1.5-8-2.2
				c1.4-0.9,3.3-1.8,5.3-2.4C271,267.1,275,268.2,278.9,269.2z"/>
			<path class="st9" d="M281.9,256.8l-3,12.4c-4-1.1-7.9-2.1-11.8-3.2c2.3-0.7,4.8-1.1,6.6-0.6c4.4,1.2,6.1-6.8,6.5-9
				C280.8,256.6,281.4,256.7,281.9,256.8z"/>
			<path class="st11" d="M285.3,257.7c-0.2,0-0.4-0.1-0.6-0.1c-1-0.2-1.9-0.5-2.8-0.7c-0.6-0.1-1.1-0.3-1.7-0.4
				c0.1-0.4,0.1-0.6,0.1-0.6c-0.8-0.9-2.1-2.4-2.5-3.7c-0.4-1.5,0.4-2.6,4.5-2.2c-3.3,1.2,3.7,7.9,3.7,7.9l0,0.1
				C285.9,257.8,285.6,257.7,285.3,257.7z"/>
			<path class="st5" d="M280.3,256.4c-0.4,2.3-2.1,10.2-6.5,9c-1.8-0.5-4.3-0.1-6.6,0.6c-33.7-9.1-62.7-17.5-63.4-17.7
				c1-4.5,2.4-9.2,4-10.4c0,0,0.1-0.1,0.3-0.2c0.8-0.3,1.1-0.5,1.2-0.5c0,0,0,0,0,0c0.4-0.1,0.8-0.1,1.2,0.1c0,0,6.7,0.9,7.9,1.9
				c0,0,38.8,11.4,39.8,11.4C258.7,250.7,265.7,252.8,280.3,256.4z"/>
			<path class="st5" d="M278,272.9c-2.7-0.7-5.5-1.5-8.2-2.2c2.2-0.4,4.6-0.3,5.7,0.5c0.6,0.5,1.9-0.3,3.4-1.8L278,272.9z"/>
			<path class="st9" d="M269.9,270.7c-2.1,0.3-4,1.1-4.6,2c-0.2,0.3-0.4,0.6-0.7,0.8c-3.1-0.7-6-1.5-8.7-2.1l2.5,0.1
				c0,0,2.4,0.3,1.4-0.7c-0.3-0.3,0.5-1.2,2.1-2.1C264.5,269.2,267.2,269.9,269.9,270.7z"/>
			<path class="st9" d="M264.6,273.4c-1.4,1.2-3.4,1.2-3.4,1.2l-3.5,1.9c-0.4-0.1-0.8-0.2-1.2-0.3l1.3-3.2l-3.9-1.8l1.9,0.1
				C258.6,272,261.5,272.7,264.6,273.4z"/>
			<path class="st6" d="M267.2,266.1c-2,0.6-3.9,1.6-5.3,2.4c-30.9-8.4-56.8-15.9-58.8-16.5c0.2-1.1,0.5-2.3,0.7-3.5
				C204.5,248.6,233.5,257,267.2,266.1z"/>
			<path class="st6" d="M259.8,270.6c1,1-1.4,0.7-1.4,0.7l-2.5-0.1c-13.6-3.3-23.1-5.7-24.1-6.1c-1.8-0.7-29.7-7.6-29.7-7.6
				s0.3-2.4,0.9-5.6c2.1,0.6,28,8.1,58.8,16.5C260.3,269.4,259.4,270.3,259.8,270.6z"/>
			<path class="st10" d="M257.7,276.5l-1.7,0.9l0.5-1.2C256.9,276.3,257.3,276.4,257.7,276.5z"/>
			<path class="st9" d="M265.3,230.8c0.6,0.4-4.8,15.4,9.9,19.7l0,0l0.9,0.6c-18.8-4.9-11.2-20.4-11.2-20.4
				C265.1,230.7,265.2,230.8,265.3,230.8z"/>
			<path class="st8" d="M275.2,250.5c-14.7-4.2-9.3-19.2-9.9-19.7c-0.1-0.1-0.2-0.1-0.3-0.1c-0.1,0-0.2,0-0.2,0.1
				c1.3-1,3.6-1.2,7.5,1.2c9,5.4,10.2,17.9,10.2,17.9l0,0c-4.1-0.4-4.9,0.7-4.5,2.2l-0.9-0.1c0.2,0,0.4,0,0.6,0.1l-1.5-1
				L275.2,250.5L275.2,250.5z"/>
			<path class="st11" d="M264.2,231.2c0.1-0.2,0.3-0.3,0.5-0.4c0,0,0,0,0,0c0.1,0,0.2-0.1,0.2-0.1c0,0-7.6,15.5,11.2,20.4l1.5,1
				c-0.2,0-0.4,0-0.6-0.1c-17.1-2.1-14.1-17.5-14.1-17.5s0.1-1.7,1-3c0,0,0,0,0,0C264.1,231.4,264.2,231.3,264.2,231.2z"/>
			<path class="st7" d="M203,252c-0.6,3.2-0.9,5.6-0.9,5.6s27.9,6.9,29.7,7.6c1,0.4,10.5,2.8,24.1,6.1l-1.9-0.1l3.9,1.8l-1.3,3.2
				c-31.4-8.4-57.5-15.8-59.7-16.4c1.7-8.1,4.2-18.7,6.6-20.2c0,0,0,0,0,0c0.1,0,0.2-0.1,0.2-0.1c0,0,0,0,0,0
				c2.1-0.8,3.5-1.3,4.4-1.7c-0.2,0.1-0.3,0.2-0.3,0.2c-1.6,1.1-3,5.9-4,10.4C203.5,249.6,203.2,250.8,203,252z"/>
			<path class="st1" d="M196.8,259.8c-0.4,2.1-0.8,4-1.1,5.5c-0.1,0.5-0.2,1-0.3,1.5c-0.1,0.1-2.8,2.4-2.6-3.4
				c0.1-0.4,0.2-0.8,0.3-1.3c1.7-6.5,5.6-21.1,7-21.4c1.4-0.3,2.7-0.9,3.2-1.2C201.1,241.1,198.5,251.7,196.8,259.8z"/>
		</g>
		<g>
		</g>
	</g>
</g>
<g>
	<g id="XMLID_1_">
		<g>
			<path class="st12" d="M214.6,207.2c11.5,14.4,18.6,33.7,18.6,55c0,44.3-30.6,80.3-68.4,80.3c-37.8,0-68.4-35.9-68.4-80.3
				c0-21.3,7.1-40.6,18.6-55l0.3,0.2c0,0,23.2,1.3,38.4,12.1c-15.6,5.6-26.9,22.6-26.9,42.7c0,24.6,17,44.6,38,44.6
				c21,0,38-20,38-44.6c0-20.1-11.4-37.1-26.9-42.7c15.2-10.8,38.4-12.1,38.4-12.1L214.6,207.2z"/>
			<path class="st13" d="M214.6,207.2l-0.3,0.2c0,0-23.2,1.3-38.4,12.1c-3.5-1.3-7.2-1.9-11.1-1.9s-7.6,0.7-11.1,1.9
				c-15.2-10.8-38.4-12.1-38.4-12.1l-0.3-0.2c12.5-15.6,30.2-25.3,49.8-25.3C184.4,181.9,202.1,191.6,214.6,207.2z"/>
			<path class="st13" d="M164.8,217.6c3.9,0,7.6,0.7,11.1,1.9c-4.8,3.4-8.9,7.8-11.1,13.4c-2.2-5.6-6.2-9.9-11.1-13.4
				C157.2,218.3,161,217.6,164.8,217.6z"/>
		</g>
		<g>
		</g>
	</g>
</g>
<g>
	<g>
		<polygon class="st14" points="239,187.6 164.8,209.6 90.6,187.6 164.8,165.6 		"/>
	</g>
</g>
<g id="XMLID_3_">
	<g>
		<path class="st15" d="M164.8,182.7c1.8,0,3.3,0.9,3.3,2.1s-1.5,2.1-3.3,2.1c-1.8,0-3.3-0.9-3.3-2.1S163,182.7,164.8,182.7z"/>
		<ellipse class="st15" cx="157.5" cy="184.8" rx="4.1" ry="1.5"/>
		<path class="st15" d="M149.3,183.2c2.2,0,4.1,0.7,4.1,1.5s-1.8,1.5-4.1,1.5c-1.8,0-3.3-0.4-3.9-1c0,0,0,0,0,0
			c-0.1-0.2-0.2-0.3-0.2-0.5C145.2,183.9,147.1,183.2,149.3,183.2z"/>
		<path class="st15" d="M145.5,185.3c0.1,0.2,0.2,0.3,0.2,0.5c0,0.8-1.8,1.5-4.1,1.5s-4.1-0.7-4.1-1.5c0-0.9,1.8-1.5,4.1-1.5
			C143.4,184.2,144.9,184.6,145.5,185.3C145.4,185.3,145.5,185.3,145.5,185.3z"/>
		<path class="st15" d="M137.6,186.3c0.7,0.7-0.3,1.9-2.2,2.7c-1.9,0.8-4,0.8-4.7,0.1c-0.7-0.7,0.3-1.9,2.2-2.7
			C134.8,185.6,136.9,185.5,137.6,186.3z"/>
		<path class="st16" d="M121,226.8c-1.7-0.1-3-0.4-3.5-0.8c-1.7-1.4,6.8-12.2,6.8-12.2h0c0.9,0.7,2.6,1.1,4.5,1.1
			c1.9,0,3.7-0.4,4.6-1.1c5.9,14.8,0.6,12.6-0.7,12.8c-0.2,0-0.7,0.1-1.4,0.1c1.8-0.1,1.4-4.6,1.4-4.6l-1.4,4.6
			C128.9,226.9,124.2,227.1,121,226.8z M126,222.4l-2.1,4.4C124.6,226.7,125.8,222.8,126,222.4z M129.9,222.1l-2.5,4.7
			C129.3,226.2,129.9,222.1,129.9,222.1z"/>
		<path class="st17" d="M134.1,212.7c0,0.4-0.3,0.8-0.7,1.1l-4.6,1.1l-4.5-1.1h0c-0.4-0.3-0.7-0.7-0.7-1.1c0-1.2,2.4-2.2,5.3-2.2
			C131.7,210.5,134.1,211.5,134.1,212.7z"/>
		<path d="M128.8,214.9l4.6-1.1C132.5,214.5,130.8,214.9,128.8,214.9z"/>
		<path d="M132.6,222.1c0,0,0.5,4.5-1.4,4.6h0L132.6,222.1z"/>
		<path class="st15" d="M130.8,189.4c1.3,0.2,1.9,1.5,1.4,2.9c-0.5,1.4-2,2.4-3.2,2.2c-1.3-0.2-1.9-1.5-1.4-2.9
			C128,190.2,129.5,189.3,130.8,189.4z"/>
		<path class="st15" d="M131.2,207.8c0.1,1.5-0.8,2.7-2.1,2.7c-1.3,0-2.5-1.1-2.6-2.5c-0.1-1.4,0.8-2.7,2.2-2.7
			C129.9,205.2,131.1,206.3,131.2,207.8z"/>
		<path class="st15" d="M130.7,202.5c0.1,1.4-0.8,2.7-2.1,2.7c-1.3,0-2.5-1.1-2.6-2.5s0.8-2.7,2.1-2.7
			C129.4,199.9,130.6,201,130.7,202.5z"/>
		<ellipse class="st15" cx="128.4" cy="197.3" rx="2.4" ry="2.6"/>
		<path d="M127.4,226.8l2.5-4.7C129.9,222.1,129.3,226.2,127.4,226.8z"/>
		<path d="M124.3,213.8l4.5,1.1C126.9,214.9,125.2,214.5,124.3,213.8z"/>
		<path d="M123.9,226.8l2.1-4.4C125.8,222.8,124.6,226.7,123.9,226.8z"/>
	</g>
	<g>
	</g>
</g>
</svg>
