<?xml version="1.0" encoding="utf-8"?>
<!-- Generator: Adobe Illustrator 20.0.0, SVG Export Plug-In . SVG Version: 6.00 Build 0)  -->
<svg version="1.1" id="Layer_1" xmlns="http://www.w3.org/2000/svg" xmlns:xlink="http://www.w3.org/1999/xlink" x="0px" y="0px"
	 viewBox="0 0 612 250" style="enable-background:new 0 0 612 250;" xml:space="preserve">
<style type="text/css">
	.st0{fill:#EFEED8;}
	.st1{fill:#F4F3E4;}
	.st2{fill:#F6F5C6;}
	.st3{fill:#F4EFD4;}
	.st4{fill:#F4F1D9;}
	.st5{fill:#F2EEC1;}
	.st6{fill:#F4F2D8;}
	.st7{fill:#F4F2CE;}
	.st8{fill:#ED1C24;}
	.st9{fill:#D61F38;}
	.st10{fill:#E63A4E;}
	.st11{fill:#EE323E;}
	.st12{fill:#D7D1D3;}
	.st13{fill:#3A3738;}
	.st14{fill:#0B090A;}
	.st15{fill:#EFEC8B;}
	.st16{fill:#E5D01D;}
	.st17{fill:#F4D80F;}
</style>
<g id="XMLID_2_">
	<g>
		<polygon points="492.6,22.6 583.2,221.2 540.6,221.2 492.6,96.8 444.6,221.2 402,221.2 		"/>
		<polygon points="305.6,22.6 396.2,221.2 353.5,221.2 305.6,96.8 257.6,221.2 215,221.2 		"/>
	</g>
	<g>
	</g>
</g>
<g>
	<g id="XMLID_4_">
		<g>
			<path class="st0" d="M415.6,174.1c0,0,0.6,13.2-3.1,20.2c0,0-2.2,3-3.7,2.3C411,190.5,414.3,181,415.6,174.1z"/>
			<path class="st1" d="M415.6,174.1c-1.3,6.9-4.6,16.4-6.8,22.5c-1.3,3.5-2.2,5.9-2.2,5.9s-0.5,2.8-3.2,0.9c0.2-0.5,0.3-1,0.3-1.6
				c0-1.5,0.7-3.2,1.3-4.3c0.4-0.7,0.7-1.2,0.8-1.2c0,0,0,0,0,0s0.9-3,2-7.3c1.8-6.7,4.1-16.6,4.5-22.8l3.7,1.3
				C416.3,169,416.1,171.3,415.6,174.1z"/>
			<path class="st2" d="M407.5,188.9l0.2,0.1c-1.1,4.3-2,7.3-2,7.3s0,0,0,0c-3.5,1.2-25.8-5.1-25.8-5.1s1.5-1.8,3.9-4.5
				C395.7,188.7,404.2,189.7,407.5,188.9z"/>
			<path class="st2" d="M404.7,197.4l0.3,0.1c-0.6,1.1-1.4,2.8-1.3,4.3c0,0.6-0.1,1.2-0.3,1.6c-0.5,1.4-1.6,2.1-1.6,2.1l-46.7-13
				l-65.4-17.1c0,0-0.8-0.2-2.2-0.6l0.5-2.2C323.4,181.3,363.7,190.2,404.7,197.4z"/>
			<path class="st3" d="M409.2,171.7c-0.4,2-1,3.8-1.9,5.5c-2.8,0.4-7.7,0-14.3-1c1.4-1.5,2.8-3,4.2-4.4
				C403.8,172.7,408,172.7,409.2,171.7z"/>
			<path class="st4" d="M407.3,177.2c0.9-1.6,1.5-3.5,1.9-5.5c0.7-3.7,0.7-7.6,0.4-10.6c0.7-0.3,1.3-0.4,1.7-0.3l0.4,0.4
				c0.5,0.9,0.6,2.7,0.5,5c-0.4,6.2-2.8,16-4.5,22.8l-0.2-0.1c-3.4,0.8-11.8-0.2-23.7-2.3c1.3-1.5,3-3.4,4.7-5.4
				c9.4,2.2,15,3.6,15,3.6l1.6-4.9C406.1,179.2,406.8,178.3,407.3,177.2z"/>
			<path class="st3" d="M407.3,177.2c-0.6,1-1.3,2-2.1,2.8l-1.6,4.9c0,0-5.7-1.4-15-3.6c1.4-1.6,3-3.3,4.5-5
				C399.6,177.2,404.5,177.6,407.3,177.2z"/>
			<path class="st5" d="M409.7,161.1c0.2,3,0.3,6.9-0.4,10.6c-1.2,1-5.4,1-12,0.1C402.2,166.8,406.9,162.4,409.7,161.1z"/>
			<path class="st5" d="M409.5,159.1c0.1,0.6,0.1,1.3,0.2,2c-2.7,1.2-7.5,5.7-12.4,10.7c-19.9-2.6-61.3-12.7-102.7-23.5
				c-0.1-3.2,0.5-6.4,0.5-6.4l2.7-11.1c14.4,3.4,32.6,7.5,54.7,12.1c12.7,2.6,56.6,13.5,56.6,13.5S409.3,157.4,409.5,159.1z"/>
			<path class="st2" d="M404.7,197.4c-41-7.2-81.3-16.1-116.8-24.8l1.1-5.1c1.3-0.6,2.8-1.3,3.6-2.1c0.3,0.1,0.5,0.1,0.7,0.2
				c-0.2,1.9-0.7,4.8-1.6,5c-1.2,0.2,1.6,0.4,4.2-2.5c0.4-0.4,0.8-0.9,1.1-1.5c33.1,8.5,65.4,16.2,86.8,20.1
				c-2.4,2.7-3.9,4.5-3.9,4.5s22.3,6.3,25.8,5.1c0,0.1-0.4,0.5-0.8,1.2L404.7,197.4z"/>
			<path class="st6" d="M397.3,171.9c-1.4,1.4-2.8,2.9-4.2,4.4c-20.9-3.1-58.2-12.1-96-22c0,0,0,0,0,0c-1.8-0.5-2.4-3.2-2.5-5.9
				C336,159.2,377.3,169.3,397.3,171.9z"/>
			<path class="st6" d="M393.1,176.2c-1.6,1.7-3.1,3.4-4.5,5c-19.8-4.7-56-13.4-90.1-21.7c0.4-2.5,0.2-4.9-1.5-5.3
				C334.9,164.2,372.2,173.2,393.1,176.2z"/>
			<path class="st7" d="M297.1,166.5c-0.1,0-0.3-0.1-0.4-0.1c0.3-0.8,1.4-3.9,1.9-6.9c34.1,8.2,70.3,16.9,90.1,21.7
				c-1.8,2-3.4,3.8-4.7,5.4C362.5,182.7,330.2,175,297.1,166.5z"/>
			<path class="st8" d="M330.3,112c0,0-2.6,17.2-28,14.7c1.2-1.9,0.5-4.3-6.4-6.4l0.1-0.2c0,0,19.1-19.5,26.1-15.1
				C329,109.4,330.3,112,330.3,112z"/>
			<path class="st9" d="M298.5,159.6c-0.4,2.9-1.6,6.1-1.9,6.9c-1.1-0.3-2.2-0.6-3.2-0.8c0.1-1.3,0.1-2.2-0.1-1.2
				c-0.1,0.4-0.3,0.7-0.6,1c-1-0.3-2-0.5-3-0.8l1.5-6.9C293.6,158.4,296,159,298.5,159.6z"/>
			<path class="st9" d="M296.6,166.4c0,0.1-0.1,0.2-0.1,0.2L296,168c-2.6,3-5.4,2.7-4.2,2.5c1-0.1,1.5-3.1,1.6-5
				C294.5,165.9,295.6,166.1,296.6,166.4z"/>
			<path class="st9" d="M297.1,154.3c1.7,0.4,1.8,2.8,1.5,5.3c-2.5-0.6-4.9-1.2-7.4-1.8l1-4.8C293.8,153.4,295.4,153.8,297.1,154.3
				C297.1,154.3,297.1,154.3,297.1,154.3z"/>
			<path class="st9" d="M295.8,120.3c7,2.1,7.7,4.5,6.4,6.4c-0.3,0.4-0.6,0.8-1,1.2l-2.2,0.7c-1.2-0.3-2.2-0.8-3-1.3l0,0
				c-4.2-2.6-4.8-7-6.6-8.5c0.8,0.1,1.7,0.3,2.7,0.5C293.5,119.6,294.7,120,295.8,120.3z"/>
			<path class="st9" d="M299,128.6l2.2-0.7c-1.7,1.5-4.2,2.6-4.2,2.6l-1-3.2C296.8,127.8,297.8,128.2,299,128.6z"/>
			<path class="st9" d="M294.6,148.3c0.1,2.8,0.6,5.5,2.5,5.9c-1.6-0.4-3.3-0.9-4.9-1.3l1.1-5C293.7,148.1,294.1,148.2,294.6,148.3z
				"/>
			<path class="st9" d="M289.6,164.6c1,0.3,2,0.5,3,0.8c-0.8,0.8-2.3,1.6-3.6,2.1L289.6,164.6z"/>
			<path class="st8" d="M287.9,172.6l-0.5,2.2l-0.3-0.1c-2.3-0.6-6.1-1.5-11.1-2.7l-0.1,0l-0.3-0.1l0.5-2.2
				C280,170.7,284,171.6,287.9,172.6z"/>
			<path class="st8" d="M286.2,168.6c0.2,0,1.4-0.4,2.8-1l-1.1,5.1c-4-1-7.9-1.9-11.7-2.9l2-8.1c3.4,0.9,6.8,1.8,10.2,2.6
				C287.6,166.6,286.8,168.4,286.2,168.6C286.3,168.5,286.2,168.5,286.2,168.6z"/>
			<path class="st9" d="M289.6,164.6l-0.6,2.9c-1.4,0.6-2.6,1-2.8,1c0,0,0,0,0.1,0c0.5-0.1,1.3-1.9,2-4.2
				C288.8,164.4,289.2,164.5,289.6,164.6z"/>
			<path class="st9" d="M288.3,164.3c0.6-2.1,1.1-4.8,1-7c0.6,0.1,1.2,0.3,1.8,0.4l-1.5,6.9C289.2,164.5,288.8,164.4,288.3,164.3z"
				/>
			<path class="st10" d="M295,141.9c0,0-0.5,3.3-0.5,6.4c-0.5-0.1-0.9-0.2-1.4-0.4l3.7-17.4c0.3,0.1,0.5,0.1,0.8,0.2L295,141.9z"/>
			<path class="st9" d="M292.2,153l-1,4.8c-0.6-0.1-1.2-0.3-1.8-0.4c-0.1-1.3-0.4-2.5-1.1-3.4c-0.4-0.5-0.6-1.2-0.7-2.2
				C289.1,152.2,290.6,152.6,292.2,153z"/>
			<path class="st9" d="M293.2,148l-1.1,5c-1.5-0.4-3.1-0.8-4.6-1.2c-0.2-1.4-0.1-3.3,0.1-5.3C289.5,147,291.4,147.5,293.2,148z"/>
			<path class="st9" d="M297,130.5l-3.7,17.4c-1.9-0.5-3.8-1-5.6-1.5c0.7-7.3,3.4-17.1,3.4-17.4c0.4,0.1,0.7,0.2,1.1,0.3
				C293.7,129.8,295.3,130.1,297,130.5z"/>
			<path class="st8" d="M297,130.5c-1.7-0.4-3.3-0.8-4.8-1.2l0-0.1c0,0-9.7-9.2-5.1-10.8l0,0c0.7,0.1,1.5,0.2,2.3,0.3
				c1.7,1.5,2.4,5.9,6.6,8.5l0,0L297,130.5L297,130.5z"/>
			<path class="st8" d="M289.3,157.3c0.2,2.2-0.3,4.8-1,7c-3.4-0.9-6.8-1.8-10.2-2.6l1.6-6.6C282.9,155.8,286.1,156.5,289.3,157.3z"
				/>
			<path class="st8" d="M288.2,154c0.7,0.9,1,2,1.1,3.4c-3.2-0.8-6.4-1.5-9.5-2.3l1.2-5c2.2,0.6,4.3,1.2,6.5,1.7
				C287.6,152.7,287.9,153.5,288.2,154z"/>
			<path class="st8" d="M287.6,146.5c-0.2,2-0.3,3.9-0.1,5.3c-2.2-0.6-4.3-1.1-6.5-1.7l1.2-4.8c0,0,0.1-0.1,0.1-0.1
				C284.1,145.5,285.8,146,287.6,146.5z"/>
			<path class="st8" d="M282.3,145.1c4.1-4.4,9-12.7,8-16.1c0.3,0.1,0.5,0.1,0.8,0.2c-0.1,0.3-2.7,10-3.4,17.4
				C285.8,146,284.1,145.5,282.3,145.1z"/>
			<path class="st9" d="M290.3,128.9c1,3.5-3.8,11.7-8,16.1c0,0-0.1,0-0.1,0l4.2-17.1C287.6,128.3,288.9,128.6,290.3,128.9z"/>
			<path class="st2" d="M275.6,172l0.3,0.1c-14.5-3.5-39.2-9-67.7-13.7c-45.5-7.6-41.5-12.9-41.5-12.9s0.1-0.5,0.2-1.4
				c0.1-0.6,0.2-1.4,0.4-2.4c0.1-0.6,0.2-1.3,0.4-2c5.3,1.7,48.8,15.1,108.5,30.1L275.6,172z"/>
			<path class="st2" d="M278.2,161.6l-2,8.1c-59.6-14.9-103.1-28.4-108.5-30.1c0.4-2.2,0.9-4.8,1.5-7.6c3,0.8,38.9,11,82.1,22.5
				l-0.7,1.7l2.4-1.2C261.2,157.2,269.6,159.4,278.2,161.6z"/>
			<path class="st6" d="M279.8,155l-1.6,6.6c-8.5-2.2-17-4.4-25.2-6.6l4.9-2.6c0,0,2.7-0.1,4.6-1.7C268,152.1,273.8,153.6,279.8,155
				z"/>
			<path class="st6" d="M281,150l-1.2,5c-6-1.5-11.8-2.9-17.3-4.2c0.3-0.3,0.7-0.6,0.9-1.1c0.8-1.3,3.5-2.3,6.3-2.7
				C273.5,148,277.2,149,281,150z"/>
			<path class="st9" d="M282.2,145l0,0.2c-2,2-3.7,3.2-4.6,2.5c-1.4-1.1-4.7-1.2-7.8-0.7c-3.7-1-7.4-2-11-3c1.9-1.2,4.6-2.4,7.3-3.3
				C271.4,142.1,276.8,143.6,282.2,145z"/>
			<path class="st9" d="M286.4,128l-4.2,17.1c-5.4-1.4-10.9-2.9-16.2-4.3c3.2-1,6.6-1.6,9.1-0.9c6.1,1.6,8.4-9.3,8.9-12.4
				C284.8,127.6,285.6,127.8,286.4,128z"/>
			<path class="st5" d="M284.1,127.4c-0.5,3.1-2.8,14.1-8.9,12.4c-2.5-0.7-5.9-0.1-9.1,0.9c-46.3-12.5-86.1-24-87.3-24.3
				c1.4-6.2,3.3-12.7,5.6-14.3c0,0,0.2-0.1,0.4-0.3c1-0.4,1.5-0.6,1.6-0.7c0,0,0,0,0,0c0.5-0.1,1.1-0.1,1.6,0.1
				c0,0,9.2,1.2,10.8,2.6c0,0,53.4,15.7,54.8,15.6C254.4,119.5,264.1,122.4,284.1,127.4z"/>
			<path class="st5" d="M281,150c-3.8-1-7.5-2-11.3-3c3.1-0.5,6.4-0.4,7.8,0.7c0.9,0.7,2.7-0.5,4.6-2.5L281,150z"/>
			<path class="st11" d="M284.2,126.6c-1.1-1.2-2.9-3.3-3.4-5.1c-0.5-2,0.6-3.6,6.3-3c-4.6,1.6,5.1,10.8,5.1,10.8l0,0.1
				c-0.4-0.1-0.7-0.2-1.1-0.3c-0.3-0.1-0.5-0.1-0.8-0.2c-1.3-0.3-2.6-0.6-3.9-1c-0.8-0.2-1.5-0.4-2.3-0.6
				C284.2,126.9,284.2,126.6,284.2,126.6z"/>
			<path class="st9" d="M269.7,147c-2.9,0.5-5.5,1.5-6.3,2.7c-0.3,0.4-0.6,0.8-0.9,1.1c-4.2-1-8.2-2-12-2.9l3.5,0.1
				c0,0,3.3,0.4,1.9-1c-0.5-0.5,0.7-1.6,2.9-2.9C262.3,145,266,146,269.7,147z"/>
			<path class="st9" d="M262.5,150.8c-1.9,1.6-4.6,1.7-4.6,1.7L253,155c-0.6-0.1-1.1-0.3-1.6-0.4l1.8-4.4l-5.4-2.4l2.6,0.1
				C254.3,148.8,258.3,149.8,262.5,150.8z"/>
			<path class="st6" d="M266,140.7c-2.8,0.9-5.4,2.1-7.3,3.3c-42.5-11.6-78.1-21.9-81-22.8c0.3-1.5,0.6-3.2,1-4.9
				C179.9,116.7,219.8,128.2,266,140.7z"/>
			<path class="st6" d="M255.8,146.9c1.4,1.4-1.9,1-1.9,1l-3.5-0.1c-18.7-4.6-31.8-7.9-33.2-8.4c-2.5-1-40.9-10.5-40.9-10.5
				s0.5-3.3,1.3-7.7c2.9,0.9,38.5,11.2,81,22.8C256.6,145.3,255.4,146.5,255.8,146.9z"/>
			<path class="st10" d="M253,155l-2.4,1.2l0.7-1.7C251.9,154.7,252.5,154.9,253,155z"/>
			<path class="st9" d="M278.4,120.1c-25.9-6.7-15.4-28-15.4-28c0.1,0,0.3,0,0.5,0.1c0.9,0.6-6.6,21.2,13.7,27.1L278.4,120.1z"/>
			<path class="st8" d="M287.1,118.4c-5.7-0.6-6.8,1-6.3,3l0,0l-1.2-0.2c0.3,0,0.5,0.1,0.8,0.1l-2-1.3l-1.3-0.8
				c-20.3-5.8-12.8-26.5-13.7-27.1c-0.2-0.1-0.3-0.1-0.5-0.1c-0.1,0-0.2,0-0.3,0.1c1.8-1.3,4.9-1.6,10.4,1.7
				C285.5,101.3,287.1,118.4,287.1,118.4L287.1,118.4z"/>
			<path class="st11" d="M261.7,93.1c0.1-0.1,0.2-0.3,0.3-0.4c0.2-0.2,0.4-0.4,0.7-0.6c0.1,0,0.2-0.1,0.3-0.1c0,0-10.5,21.3,15.4,28
				l2,1.3c-0.3,0-0.5-0.1-0.8-0.1c-23.6-2.9-19.4-24-19.4-24S260.4,94.9,261.7,93.1C261.7,93.1,261.7,93.1,261.7,93.1z"/>
			<path class="st7" d="M184.3,102.1c-2.2,1.6-4.2,8.1-5.6,14.3c-0.4,1.7-0.7,3.3-1,4.9c-0.8,4.3-1.3,7.7-1.3,7.7
				s38.4,9.5,40.9,10.5c1.4,0.5,14.5,3.8,33.2,8.4l-2.6-0.1l5.4,2.4l-1.8,4.4c-43.2-11.5-79.2-21.7-82.1-22.5
				c2.3-11.2,5.8-25.7,9.1-27.8c0,0,0,0,0,0c0.1-0.1,0.2-0.1,0.3-0.1c0,0,0,0,0,0c2.9-1,4.8-1.8,6-2.3
				C184.4,102,184.3,102.1,184.3,102.1z"/>
			<path class="st1" d="M167.7,139.7c-0.1,0.7-0.3,1.4-0.4,2c0,0-3.9,3.5-3.5-4.7c0,0,0,0,0,0c0.1-0.5,0.3-1.1,0.5-1.7
				c2.3-8.9,7.7-29,9.6-29.4c1.9-0.4,3.7-1.2,4.4-1.6c-3.3,2.1-6.8,16.5-9.1,27.8C168.6,134.9,168.1,137.5,167.7,139.7z"/>
		</g>
		<g>
		</g>
	</g>
</g>
<g>
	<g id="XMLID_1_">
		<g>
			<path class="st12" d="M193.7,59.6c15.9,19.8,25.6,46.4,25.6,75.7c0,61-42.1,110.5-94.1,110.5c-52,0-94.1-49.5-94.1-110.5
				c0-29.3,9.7-55.9,25.6-75.7L57,60c0,0,32,1.8,52.9,16.6c-21.5,7.7-37.1,31.1-37.1,58.8c0,33.9,23.4,61.4,52.3,61.4
				c28.9,0,52.3-27.5,52.3-61.4c0-27.7-15.6-51.1-37.1-58.8C161.3,61.8,193.3,60,193.3,60L193.7,59.6z"/>
			<path class="st13" d="M125.2,24.9c27,0,51.4,13.4,68.5,34.8l-0.4,0.3c0,0-31.9,1.8-52.9,16.6c-4.8-1.7-9.9-2.7-15.2-2.7
				s-10.4,0.9-15.2,2.7C89,61.8,57,60,57,60l-0.4-0.3C73.8,38.2,98.2,24.9,125.2,24.9z"/>
			<path class="st13" d="M125.2,73.9c5.3,0,10.4,0.9,15.2,2.7c-6.6,4.7-12.2,10.7-15.2,18.4c-3-7.7-8.6-13.7-15.2-18.4
				C114.8,74.9,119.9,73.9,125.2,73.9z"/>
		</g>
		<g>
		</g>
	</g>
</g>
<g>
	<g>
		<polygon class="st14" points="227.3,32.7 125.2,63 23,32.7 125.2,2.4 		"/>
	</g>
</g>
<g id="XMLID_3_">
	<g>
		<path class="st15" d="M125.2,25.9c2.5,0,4.5,1.3,4.5,2.9s-2,2.9-4.5,2.9c-2.5,0-4.5-1.3-4.5-2.9S122.7,25.9,125.2,25.9z"/>
		<ellipse class="st15" cx="115.1" cy="28.8" rx="5.6" ry="2.1"/>
		<path class="st15" d="M103.9,26.7c3.1,0,5.6,0.9,5.6,2.1c0,1.2-2.5,2.1-5.6,2.1c-2.5,0-4.6-0.6-5.3-1.4c0,0,0,0-0.1-0.1
			c-0.2-0.2-0.2-0.4-0.2-0.6C98.2,27.6,100.7,26.7,103.9,26.7z"/>
		<path class="st15" d="M98.8,30.1c0,1.2-2.5,2.1-5.6,2.1c-3.1,0-5.6-0.9-5.6-2.1c0-1.2,2.5-2.1,5.6-2.1c2.5,0,4.5,0.6,5.3,1.4
			c0,0,0,0,0.1,0.1C98.7,29.7,98.8,29.9,98.8,30.1z"/>
		<path class="st15" d="M87.7,30.8c0.9,1-0.4,2.6-3.1,3.7c-2.6,1-5.5,1.1-6.5,0.1c-0.9-1,0.4-2.7,3.1-3.7
			C83.9,29.9,86.8,29.8,87.7,30.8z"/>
		<path d="M75.6,70.3l6.3-1.5C80.7,69.7,78.3,70.3,75.6,70.3z"/>
		<path d="M80.9,80.2c0,0,0.7,6.2-1.9,6.4h0L80.9,80.2z"/>
		<path class="st15" d="M78.9,60.4c0.2,2-1.1,3.7-3,3.7c-1.8,0.1-3.4-1.5-3.6-3.5c-0.2-2,1.2-3.7,3-3.7
			C77.1,56.9,78.7,58.4,78.9,60.4z"/>
		<path class="st15" d="M78.3,35.2c1.8,0.3,2.6,2.1,1.9,4c-0.7,1.9-2.7,3.3-4.5,3c-1.8-0.3-2.6-2.1-1.9-4
			C74.6,36.3,76.6,35,78.3,35.2z"/>
		<path class="st15" d="M78.3,53.2c0.2,2-1.2,3.7-3,3.7c-1.8,0.1-3.4-1.5-3.6-3.5s1.1-3.7,3-3.7C76.5,49.6,78.1,51.2,78.3,53.2z"/>
		<ellipse class="st15" cx="75" cy="46" rx="3.3" ry="3.6"/>
		<path d="M69.4,68.8l6.2,1.5C73,70.3,70.7,69.7,69.4,68.8z"/>
		<path d="M73.7,86.6l3.4-6.4C77.1,80.2,76.3,85.8,73.7,86.6z"/>
		<path d="M68.8,86.6l2.9-6.1C71.5,81.2,69.8,86.5,68.8,86.6z"/>
		<path class="st16" d="M81.9,68.8l-6.3,1.5l-6.2-1.5h0c-0.6-0.4-1-1-1-1.5c0-1.7,3.2-3,7.2-3c4,0,7.3,1.4,7.3,3
			C82.9,67.8,82.5,68.3,81.9,68.8z"/>
		<path class="st17" d="M73.7,86.6c2.6-0.8,3.4-6.4,3.4-6.4L73.7,86.6z M79,86.6c-3.3,0.2-9.6,0.4-14.1,0c-2.3-0.2-4.2-0.5-4.8-1.1
			c-2.4-1.9,9.4-16.8,9.4-16.8h0c1.3,0.9,3.6,1.5,6.2,1.5c2.7,0,5-0.6,6.3-1.5c8.2,20.4,0.8,17.4-1,17.7C80.7,86.5,80,86.6,79,86.6
			c2.5-0.2,1.9-6.4,1.9-6.4L79,86.6z M71.7,80.5l-2.9,6.1C69.8,86.5,71.5,81.2,71.7,80.5z"/>
	</g>
	<g>
	</g>
</g>
</svg>
